<svg xmlns="http://www.w3.org/2000/svg" viewBox="0 0 235.24 242.12"><defs><style>.cls-1{fill:#00416b;fill-rule:evenodd;}</style></defs><title>automize logoMark</title><g id="Layer_2" data-name="Layer 2"><g id="Layer_1-2" data-name="Layer 1"><path class="cls-1" d="M117.62,0A117.69,117.69,0,0,1,225.89,163.66L200.6,130.83a84,84,0,1,0-165.07,4.72L10.44,166.12A117.67,117.67,0,0,1,117.62,0Z"/><path class="cls-1" d="M13.82,173.2,120,43.07,221.42,169.29c-31.34,72.1-127.08,72.39-164.51,12.62,38.3,35.11,85.73,40.18,128-4.35L119.58,95.73,52.12,180.6c24.25,52.61,117.94,75.44,168.43,3.48C171.22,271.85,47.91,253.43,13.82,173.2Z"/></g></g></svg>
