<?xml version="1.0" encoding="UTF-8" standalone="no"?>
<svg
   id="Layer_1"
   version="1.1"
   viewBox="0 0 300 300"
   sodipodi:docname="RightsManagement_logo_icon_orange.svg"
   inkscape:version="1.4.2 (ebf0e940, 2025-05-08)"
   inkscape:export-filename="RightsManagement_logo_icon_orange.png"
   inkscape:export-xdpi="96"
   inkscape:export-ydpi="96"
   xmlns:inkscape="http://www.inkscape.org/namespaces/inkscape"
   xmlns:sodipodi="http://sodipodi.sourceforge.net/DTD/sodipodi-0.dtd"
   xmlns="http://www.w3.org/2000/svg"
   xmlns:svg="http://www.w3.org/2000/svg">
  <sodipodi:namedview
     id="namedview6"
     pagecolor="#ffffff"
     bordercolor="#000000"
     borderopacity="0.25"
     inkscape:showpageshadow="2"
     inkscape:pageopacity="0.0"
     inkscape:pagecheckerboard="0"
     inkscape:deskcolor="#d1d1d1"
     inkscape:zoom="0.88731795"
     inkscape:cx="88.468851"
     inkscape:cy="183.69965"
     inkscape:window-width="1512"
     inkscape:window-height="849"
     inkscape:window-x="0"
     inkscape:window-y="38"
     inkscape:window-maximized="1"
     inkscape:current-layer="Layer_1" />
  <!-- Generator: Adobe Illustrator 29.7.1, SVG Export Plug-In . SVG Version: 2.1.1 Build 8)  -->
  <defs
     id="defs1">
    <style
       id="style1">
      .st0 {
        fill: none;
      }

      .st1 {
        fill: #052573;
      }
    </style>
  </defs>
  <path
     class="st0"
     d="M157.7,162.6h0c0,0,0,0,0,0,0,0,0,0,0,0Z"
     id="path1" />
  <path
     class="st0"
     d="M149.7,154.6c-4.4,0-8,3.6-8,8s1.4,5.2,3.5,6.6c.3.2.5.5.5.8v7.4c0,2.1,1.5,3.9,3.6,4.1,2.4.2,4.4-1.6,4.4-4v-7.6c0-.3.2-.6.5-.8,2.1-1.4,3.5-3.8,3.5-6.6,0-4.4-3.6-7.9-8-7.9Z"
     id="path2" />
  <path
     class="st0"
     d="M228.7,83.9h-.6c-1.1-.8-2.4-1.6-3.7-2.1-3.6-1.5-17.4-7.7-28.3-13.1-11.9-5.9-30.7-13.6-34.6-15.8l-.5-.3c-4.3-2.1-6.8-3-11-3s-6.7.9-11,3l-.5.3c-3.9,2.2-22.7,9.9-34.6,15.8-10.9,5.4-24.7,11.6-28.3,13.1-1.4.6-2.6,1.3-3.7,2.1-6.6,5-6.6,10.7-6.6,16.7v62c0,15.5,3.7,28.4,13.3,39.9,8.9,10.7,13.6,15.3,26.7,25.2,19.5,14.5,36,19.9,36,19.9,2.8.9,5.3,2,9,2s6.1-1,9-2c0,0,16.5-5.4,36-19.9,13.1-10,17.8-14.6,26.7-25.2,9.5-11.5,13.2-24.3,13.3-39.9v-62c0-6.1,0-11.8-6.6-16.7ZM124.7,123.8c0-13.4,11.2-24.2,25-24.2s25,10.9,25,24.2v5.8c0,1-.9,1.8-1.9,1.7-2.2-.3-4.3-.5-6.5-.7-.9,0-1.6-.8-1.6-1.7v-5.1c0-8-6.7-14.5-15-14.5s-15,6.5-15,14.5v5.1c0,.9-.7,1.6-1.6,1.7-2.2.2-4.3.4-6.5.7-1,.1-1.9-.7-1.9-1.7v-5.8ZM187.7,168.3v2c0,5.2-.3,11.6-.8,16.9-.6,6.5-3.7,9.6-10.2,10.6-8.3,1.2-18.7,1.8-27,1.8s-18.7-.6-27-1.8c-6.6-1-9.6-4.1-10.2-10.6-.5-5.3-.8-11.7-.8-16.9s0-2.3,0-2.3v-2c0-5.2.3-11.6.8-16.9.6-6.5,3.7-9.6,10.2-10.6,8.3-1.2,18.7-1.8,27-1.8s18.7.6,27,1.8c6.6,1,9.6,4.1,10.2,10.6.5,5.4.8,11.7.8,16.9s0,2.3,0,2.3Z"
     id="path3" />
  <path
     class="st1"
     d="M176.7,138.5c-8.3-1.2-18.7-1.8-27-1.8s-18.7.6-27,1.8c-6.5,1-9.6,4.1-10.2,10.6-.5,5.3-.8,11.7-.8,16.9v2s0,.5,0,2.3c0,5.2.3,11.6.8,16.9.6,6.5,3.6,9.6,10.2,10.6,8.3,1.2,18.7,1.8,27,1.8s18.7-.6,27-1.8c6.5-1,9.6-4.1,10.2-10.6.5-5.3.8-11.7.8-16.9v-2s0-.5,0-2.3c0-5.2-.3-11.5-.8-16.9-.6-6.5-3.6-9.6-10.2-10.6ZM157.7,162.6s0,0,0,0c0,2.8-1.4,5.2-3.5,6.6-.3.2-.5.5-.5.8v7.6c0,2.4-2,4.2-4.4,4-2.1-.2-3.6-2-3.6-4.1v-7.4c0-.3-.2-.6-.5-.8-2.1-1.4-3.5-3.8-3.5-6.6,0-4.4,3.6-8,8-8s8,3.6,8,7.9c0,0,0,0,0,0h0Z"
     id="path4"
     style="fill:#ff6600;fill-opacity:1" />
  <path
     class="st1"
     d="M268.7,31.2C248.2,9.5,205-.4,149.8-.4h-.2C94.5-.4,51.2,9.5,30.7,31.2,7.1,57.3-.3,99.6-.3,149.6s7.4,92.3,31,118.4c20.5,21.7,63.7,31.6,118.9,31.6h.2c55.2,0,98.4-10,118.9-31.6,23.6-26.1,31-68.4,31-118.4s-7.4-92.3-31-118.4ZM235.3,162.6c-.1,15.6-3.8,28.4-13.3,39.9-8.9,10.6-13.6,15.2-26.7,25.2-19.5,14.5-36,19.9-36,19.9-2.9,1-5.3,2-9,2s-6.2-1.1-9-2c0,0-16.5-5.4-36-19.9-13.1-9.9-17.8-14.5-26.7-25.2-9.6-11.5-13.3-24.4-13.3-39.9v-62c0-6,0-11.7,6.6-16.7,1.1-.8,2.3-1.5,3.7-2.1,3.6-1.5,17.4-7.7,28.3-13.1,11.9-5.9,30.7-13.6,34.6-15.8l.5-.3c4.3-2.1,6.8-3,11-3s6.7.9,11,3l.5.3c3.9,2.2,22.7,9.9,34.6,15.8,10.9,5.4,24.7,11.6,28.3,13.1,1.3.5,2.6,1.3,3.7,2.1h.6c6.6,4.9,6.6,10.6,6.6,16.7v62Z"
     id="path5"
     style="fill:#ff6600;fill-opacity:1" />
  <path
     class="st1"
     d="M126.6,131.3c2.2-.3,4.3-.5,6.5-.7.9,0,1.6-.8,1.6-1.7v-5.1c0-8,6.7-14.5,15-14.5s15,6.5,15,14.5v5.1c0,.9.7,1.7,1.6,1.7,2.2.2,4.3.4,6.5.7,1,.1,1.9-.7,1.9-1.7v-5.8c0-13.3-11.2-24.2-25-24.2s-25,10.8-25,24.2v5.8c0,1,.9,1.8,1.9,1.7Z"
     id="path6"
     style="fill:#ff6600;fill-opacity:1" />
</svg>
