<?xml version="1.0" encoding="UTF-8" standalone="no"?>
<svg
   id="Layer_1"
   version="1.1"
   viewBox="0 0 300 300"
   sodipodi:docname="integration_logo_icon_orange.svg"
   inkscape:version="1.4.2 (ebf0e940, 2025-05-08)"
   xmlns:inkscape="http://www.inkscape.org/namespaces/inkscape"
   xmlns:sodipodi="http://sodipodi.sourceforge.net/DTD/sodipodi-0.dtd"
   xmlns="http://www.w3.org/2000/svg"
   xmlns:svg="http://www.w3.org/2000/svg">
  <sodipodi:namedview
     id="namedview1"
     pagecolor="#ffffff"
     bordercolor="#000000"
     borderopacity="0.25"
     inkscape:showpageshadow="2"
     inkscape:pageopacity="0.0"
     inkscape:pagecheckerboard="0"
     inkscape:deskcolor="#d1d1d1"
     inkscape:zoom="0.89570736"
     inkscape:cx="246.17415"
     inkscape:cy="56.938239"
     inkscape:window-width="1512"
     inkscape:window-height="849"
     inkscape:window-x="0"
     inkscape:window-y="38"
     inkscape:window-maximized="1"
     inkscape:current-layer="Layer_1" />
  <!-- Generator: Adobe Illustrator 29.7.1, SVG Export Plug-In . SVG Version: 2.1.1 Build 8)  -->
  <defs
     id="defs1">
    <style
       id="style1">
      .st0 {
        fill: #052573;
        fill-rule: evenodd;
      }
    </style>
  </defs>
  <g
     id="integration"
     style="fill:#ff6600;fill-opacity:1">
    <path
       class="st0"
       d="M300.1,149.6h0c0,50-7.4,92.3-31,118.4h0c-20.5,21.6-63.7,31.6-118.9,31.6h-.2c-55.2,0-98.4-9.9-118.9-31.6h0C7.5,241.9.1,199.6.1,149.6S7.5,57.3,31.1,31.2h0C51.6,9.5,94.9-.4,150-.4h.2c55.2,0,98.4,9.9,118.9,31.6h0c23.6,26.1,31,68.4,31,118.4ZM174.1,193.6c2.1,0,3.7,1.2,4.9,2.8l5.4,7.3c.8,1.1.8,2.5,0,3.6-2.7,3.4-4.3,7.7-4.3,12.3,0,11.4,9.5,20.6,21.1,20,10.1-.5,18.4-8.8,18.9-18.9.6-11.5-8.6-21.1-20-21.1s-1.9,0-2.8.2c-1.1.2-2.2-.3-2.8-1.2l-5.6-7.6c-3.8-5.4-6.7-8.5-14.6-8.5h-24.1v11h24,0ZM150.1,52.6c0-1.7-1.4-3.1-3.1-3-2.6,0-5.3.3-7.9.6-3,.4-5.6,2.2-7,5l-6.4,12.8c-1.1,2.1-2.9,3.7-5.1,4.5-1.4.5-2.8,1.1-4.1,1.7-2.1,1-4.6,1.1-6.8.4l-13.5-4.5c-2.9-1-6.1-.5-8.5,1.4-5.8,4.6-11,9.9-15.6,15.6-1.9,2.4-2.4,5.6-1.4,8.5l4.5,13.6c.7,2.2.6,4.7-.4,6.8-.6,1.4-1.2,2.7-1.7,4.1-.8,2.2-2.4,4-4.5,5.1l-12.8,6.4c-2.7,1.3-4.6,4-5,7-.8,7.3-.8,14.8,0,22.1.4,3,2.2,5.7,5,7l12.8,6.4h0c2.1,1.1,3.7,2.9,4.5,5.1.5,1.4,1.1,2.8,1.7,4.1,1,2.1,1.1,4.6.4,6.8l-4.5,13.6c-1,2.9-.5,6.1,1.4,8.5,4.6,5.8,9.8,11,15.6,15.6,2.4,1.9,5.6,2.4,8.5,1.4l13.6-4.5h0c2.2-.7,4.7-.6,6.8.4,1.4.6,2.7,1.2,4.1,1.7h0c2.2.8,4,2.4,5.1,4.5l6.4,12.8c1.3,2.7,4,4.6,7,5,2.6.3,5.3.5,7.9.6,1.7,0,3.1-1.3,3.1-3v-53c-24.3,0-44-19.7-44-44s19.7-44,44-44v-53h0ZM199,59.6c-10.5.6-18.9,9.5-18.9,20s1.6,8.8,4.2,12.2c.8,1.1.9,2.6,0,3.7l-5.4,7.3c-1.2,1.6-2.8,2.8-4.9,2.8h-24v11h24.1c7.9,0,10.9-3.1,14.6-8.5l5.6-7.6c.7-.9,1.8-1.3,2.8-1.2.9,0,1.8.2,2.8.2,11,0,20-9,20-20s-9.5-20.6-21.1-20h.2ZM217.1,116.6c-15.4,0-28.3,10.5-32,24.7-.3,1.3-1.5,2.3-2.9,2.3h-32.2v-27c-17.8.5-32,15.1-32,33s14.2,32.5,32,33v-27h32.2c1.4,0,2.6.9,2.9,2.3,3.9,14.9,17.9,25.7,34.2,24.7,16.8-1.1,30.2-15.1,30.7-32,.5-18.7-14.5-33.9-33-33.9h.1ZM217.1,170.6c-11.6,0-21-9.4-21-21s9.4-21,21-21,21,9.4,21,21-9.4,21-21,21ZM200.1,88.6c-5,0-9-4-9-9s4-9,9-9,9,4,9,9-4,9-9,9ZM200.1,210.6c5,0,9,4,9,9s-4,9-9,9-9-4-9-9,4-9,9-9Z"
       id="path1"
       style="fill:#ff6600;fill-opacity:1" />
  </g>
</svg>
