<?xml version="1.0" encoding="UTF-8" standalone="no"?>
<svg
   id="Layer_1"
   version="1.1"
   viewBox="0 0 300 300"
   sodipodi:docname="Automation_logo_orange_icon.svg"
   inkscape:version="1.4.2 (ebf0e940, 2025-05-08)"
   xmlns:inkscape="http://www.inkscape.org/namespaces/inkscape"
   xmlns:sodipodi="http://sodipodi.sourceforge.net/DTD/sodipodi-0.dtd"
   xmlns="http://www.w3.org/2000/svg"
   xmlns:svg="http://www.w3.org/2000/svg">
  <sodipodi:namedview
     id="namedview3"
     pagecolor="#ffffff"
     bordercolor="#000000"
     borderopacity="0.25"
     inkscape:showpageshadow="2"
     inkscape:pageopacity="0.0"
     inkscape:pagecheckerboard="0"
     inkscape:deskcolor="#d1d1d1"
     inkscape:zoom="2.7733333"
     inkscape:cx="150.18029"
     inkscape:cy="179.02644"
     inkscape:window-width="2032"
     inkscape:window-height="1186"
     inkscape:window-x="96"
     inkscape:window-y="72"
     inkscape:window-maximized="0"
     inkscape:current-layer="Layer_1" />
  <!-- Generator: Adobe Illustrator 29.7.1, SVG Export Plug-In . SVG Version: 2.1.1 Build 8)  -->
  <defs
     id="defs1">
    <style
       id="style1">
      .st0 {
        fill: none;
      }

      .st1 {
        fill: #052573;
      }
    </style>
  </defs>
  <path
     class="st0"
     d="m 244.5,131.5 -12.8,-6.4 c -2.1,-1.1 -3.7,-2.9 -4.5,-5.1 -0.5,-1.4 -1.1,-2.8 -1.7,-4.1 -1,-2.1 -1.1,-4.6 -0.4,-6.8 l 4.5,-13.5 c 1,-2.9 0.5,-6.1 -1.4,-8.5 -4.6,-5.8 -9.8,-11 -15.6,-15.6 -2.4,-1.9 -5.6,-2.4 -8.5,-1.4 l -13.6,4.5 c -2.2,0.7 -4.7,0.6 -6.8,-0.4 -1.4,-0.6 -2.7,-1.2 -4.1,-1.7 -2.2,-0.8 -4,-2.4 -5.1,-4.5 l -6.4,-12.8 c -1.3,-2.7 -4,-4.6 -7,-5 -7.3,-0.8 -14.7,-0.8 -22.1,0 -3,0.4 -5.6,2.2 -7,5 L 125.6,68 c -1.1,2.1 -2.9,3.7 -5.1,4.5 -1.4,0.5 -2.8,1.1 -4.1,1.7 -2.1,1 -4.6,1.1 -6.8,0.4 L 96.1,70.1 c -2.9,-1 -6.1,-0.5 -8.5,1.4 -5.8,4.6 -11,9.8 -15.6,15.6 -1.9,2.4 -2.4,5.6 -1.4,8.5 l 4.5,13.6 c 0.7,2.2 0.6,4.7 -0.4,6.8 -0.6,1.4 -1.2,2.7 -1.7,4.1 -0.8,2.2 -2.4,4 -4.5,5.1 l -12.8,6.4 c -2.7,1.3 -4.6,4 -5,7 -0.8,7.3 -0.8,14.7 0,22.1 0.4,3 2.2,5.6 5,7 l 12.8,6.4 c 2.1,1.1 3.7,2.9 4.5,5.1 0.5,1.4 1.1,2.8 1.7,4.1 1,2.1 1.1,4.6 0.4,6.8 l -4.5,13.5 c -1,2.9 -0.5,6.1 1.4,8.5 4.6,5.8 9.8,11 15.6,15.6 2.4,1.9 5.6,2.4 8.5,1.4 l 13.6,-4.5 c 2.2,-0.7 4.7,-0.6 6.8,0.4 1.4,0.6 2.7,1.2 4.1,1.7 2.2,0.8 4,2.4 5.1,4.5 l 6.4,12.8 c 1.3,2.7 4,4.6 7,5 7.3,0.8 14.7,0.8 22.1,0 3,-0.4 5.6,-2.3 7,-5 l 6.4,-12.8 c 1.1,-2.1 2.9,-3.7 5.1,-4.5 1.4,-0.5 2.8,-1.1 4.1,-1.7 2.1,-1 4.6,-1.1 6.8,-0.4 l 13.5,4.5 c 2.9,1 6.1,0.5 8.5,-1.4 5.8,-4.6 11,-9.8 15.6,-15.6 1.9,-2.4 2.4,-5.6 1.4,-8.5 L 225.1,190 c -0.7,-2.2 -0.6,-4.7 0.4,-6.8 0.6,-1.4 1.2,-2.7 1.7,-4.1 0.8,-2.2 2.4,-4 4.5,-5.1 l 12.8,-6.4 c 2.7,-1.3 4.6,-4 5,-7 0.8,-7.3 0.8,-14.7 0,-22.1 -0.4,-3 -2.3,-5.6 -5,-7 z m -64,15.1 -38.8,51.5 c -1.1,1.5 -3.2,1.8 -4.7,0.7 -1,-0.7 -1.4,-2 -1.2,-3.2 l 4.4,-32.2 c 0.2,-1.6 -0.9,-3.2 -2.6,-3.4 l -15.4,-2.2 c -0.9,0 -1.8,-0.6 -2.3,-1.3 -0.9,-1.2 -0.9,-2.8 0,-4 L 158.7,101 c 1.1,-1.5 3.2,-1.8 4.7,-0.7 1,0.7 1.4,2 1.2,3.2 l -4.4,32.2 c -0.2,1.6 0.9,3.2 2.6,3.4 l 15.4,2.2 c 0.9,0.1 1.8,0.6 2.3,1.3 0.9,1.2 0.9,2.8 0,4 z"
     id="path1"
     style="display:inline" />
  <path
     class="st1"
     d="M269.1,31.2C248.6,9.5,205.4-.4,150.2-.4h-.2C94.9-.4,51.6,9.5,31.1,31.2,7.5,57.3,0,99.6,0,149.6s7.4,92.3,31,118.4c20.5,21.7,63.7,31.6,118.9,31.6h.2c55.2,0,98.4-10,118.9-31.6,23.6-26.1,31-68.4,31-118.4s-7.4-92.3-31-118.4ZM249.5,160.6c-.4,3-2.3,5.7-5,7l-12.8,6.4c-2.1,1.1-3.7,2.9-4.5,5.1-.5,1.4-1.1,2.7-1.7,4.1-1,2.1-1.1,4.6-.4,6.8l4.5,13.6c1,2.9.5,6.1-1.4,8.5-4.6,5.8-9.8,11-15.6,15.6-2.4,1.9-5.6,2.4-8.5,1.4l-13.5-4.5c-2.2-.7-4.7-.6-6.8.4-1.3.6-2.7,1.2-4.1,1.7-2.2.8-4,2.4-5.1,4.5l-6.4,12.8c-1.4,2.7-4,4.6-7,5-7.4.8-14.8.8-22.1,0-3-.4-5.7-2.3-7-5l-6.4-12.8c-1.1-2.1-2.9-3.7-5.1-4.5-1.4-.5-2.7-1.1-4.1-1.7-2.1-1-4.6-1.1-6.8-.4l-13.6,4.5c-2.9,1-6.1.5-8.5-1.4-5.8-4.6-11-9.8-15.6-15.6-1.9-2.4-2.4-5.6-1.4-8.5l4.5-13.5c.7-2.2.6-4.7-.4-6.8-.6-1.3-1.2-2.7-1.7-4.1-.8-2.2-2.4-4-4.5-5.1l-12.8-6.4c-2.8-1.4-4.6-4-5-7-.8-7.4-.8-14.8,0-22.1.4-3,2.3-5.7,5-7l12.8-6.4c2.1-1.1,3.7-2.9,4.5-5.1.5-1.4,1.1-2.7,1.7-4.1,1-2.1,1.1-4.6.4-6.8l-4.5-13.6c-1-2.9-.5-6.1,1.4-8.5,4.6-5.8,9.8-11,15.6-15.6,2.4-1.9,5.6-2.4,8.5-1.4l13.5,4.5c2.2.7,4.7.6,6.8-.4,1.3-.6,2.7-1.2,4.1-1.7,2.2-.8,4-2.4,5.1-4.5l6.4-12.8c1.4-2.8,4-4.6,7-5,7.4-.8,14.8-.8,22.1,0,3,.4,5.7,2.3,7,5l6.4,12.8c1.1,2.1,2.9,3.7,5.1,4.5,1.4.5,2.7,1.1,4.1,1.7,2.1,1,4.6,1.1,6.8.4l13.6-4.5c2.9-1,6.1-.5,8.5,1.4,5.8,4.6,11,9.8,15.6,15.6,1.9,2.4,2.4,5.6,1.4,8.5l-4.5,13.5c-.7,2.2-.6,4.7.4,6.8.6,1.3,1.2,2.7,1.7,4.1.8,2.2,2.4,4,4.5,5.1l12.8,6.4c2.7,1.4,4.6,4,5,7,.8,7.4.8,14.8,0,22.1Z"
     id="path2"
     style="fill:#ff6600;fill-opacity:1" />
  <path
     class="st1"
     d="m 178.2,141.3 -15.4,-2.2 c -1.7,-0.2 -2.8,-1.8 -2.6,-3.4 l 4.4,-32.2 c 0.2,-1.2 -0.2,-2.5 -1.2,-3.2 -1.5,-1.1 -3.6,-0.8 -4.7,0.7 l -38.8,51.5 c -0.9,1.2 -0.9,2.8 0,4 0.5,0.7 1.4,1.2 2.3,1.3 l 15.4,2.2 c 1.7,0.2 2.8,1.8 2.6,3.4 l -4.4,32.2 c -0.2,1.2 0.2,2.5 1.2,3.2 1.5,1.1 3.6,0.8 4.7,-0.7 l 38.8,-51.5 c 0.9,-1.2 0.9,-2.8 0,-4 -0.5,-0.7 -1.4,-1.2 -2.3,-1.3 z"
     id="path3"
     style="display:inline;fill:#ff6600;fill-opacity:1" />
</svg>
