<?xml version="1.0" encoding="UTF-8" standalone="no"?>
<svg
   id="Layer_1"
   version="1.1"
   viewBox="0 0 300 300"
   sodipodi:docname="Feedback_logo_icon_orange.svg"
   inkscape:version="1.4.2 (ebf0e940, 2025-05-08)"
   xmlns:inkscape="http://www.inkscape.org/namespaces/inkscape"
   xmlns:sodipodi="http://sodipodi.sourceforge.net/DTD/sodipodi-0.dtd"
   xmlns="http://www.w3.org/2000/svg"
   xmlns:svg="http://www.w3.org/2000/svg">
  <sodipodi:namedview
     id="namedview4"
     pagecolor="#ffffff"
     bordercolor="#000000"
     borderopacity="0.25"
     inkscape:showpageshadow="2"
     inkscape:pageopacity="0.0"
     inkscape:pagecheckerboard="0"
     inkscape:deskcolor="#d1d1d1"
     inkscape:zoom="0.91303417"
     inkscape:cx="158.26352"
     inkscape:cy="180.71613"
     inkscape:window-width="1512"
     inkscape:window-height="849"
     inkscape:window-x="0"
     inkscape:window-y="38"
     inkscape:window-maximized="1"
     inkscape:current-layer="Layer_1" />
  <!-- Generator: Adobe Illustrator 29.7.1, SVG Export Plug-In . SVG Version: 2.1.1 Build 8)  -->
  <defs
     id="defs1">
    <style
       id="style1">
      .st0 {
        fill: none;
      }

      .st1 {
        fill: #052573;
      }
    </style>
  </defs>
  <path
     class="st0"
     d="M242.6,96.2c-1.5-12.6-11.6-22.7-24.2-24.2-30.9-3.3-105.7-3.3-136.7,0-12.6,1.5-22.7,11.6-24.2,24.2-3.3,31-3.3,65.9,0,96.9,1.5,12.6,11.6,22.7,24.2,24.2,9.5,1,24.8,1.9,39.5,2.3,2.2,0,5,1.4,6.3,3.1,6,8,10.2,13.1,15.3,21.8,3.8,6.7,10.8,6.7,14.6,0,5-8.7,9.4-14.1,15.3-21.8,1.3-1.7,4.1-3.1,6.3-3.1,14.7-.4,30-1.2,39.5-2.3,12.6-1.5,22.7-11.6,24.2-24.2,3.3-31,3.3-65.9,0-96.9h0ZM125.1,180.4c0,1.8-1.5,3.2-3.3,3.2h-11.4c-.9,0-1.7-.3-2.3-.9-.6-.6-1-1.4-1-2.3v-44.5c0-.9.4-1.7,1-2.3.6-.6,1.5-.9,2.3-.9h11.4c1.8,0,3.3,1.4,3.3,3.2v44.5ZM185.9,145.4c1.5,0,3.2.7,4.2,1.7,1.3,1.2,2,2.8,2,4.6s-.7,3.4-1.9,4.6-3.2,1.9-4.9,1.8h-1.8c3.4.2,6.6,3,6.6,6.4s-3.2,6.2-6.6,6.4h-1.8c1.7,0,3.1.5,4.4,1.7.6.6,1.2,1.4,1.5,2.2,1,2.6.4,5.3-1.5,7.1-1.3,1.2-3.2,1.8-4.9,1.8h-28.3c-5.3,0-10.4-1.4-14.7-4.5-1.4-1-3.1-1.6-4.8-1.6s-2.3-1-2.3-2.3v-34.5c0-1,.7-1.9,1.7-2.2,1.8-.5,4-1.3,4.8-2.3,3.7-4.6,5.9-9,10.3-13,1.8-1.7,4.1-6,4.6-8.5l2.3-10.8c0-.7.5-1.4,1.1-1.8.7-.5,1.6-.6,2.4-.5,2.8.2,5.6,1.6,7.3,3.8,1.4,2.1,1.9,5.3,1,9.5l-2.6,9.2c-.5,2.1,0,4.4,1.5,6,1.7,1.7,4.1,2.5,6.4,2.4h14.4c3.9,0,6.7,3.1,6.7,6.5s-2.6,6.2-6,6.4h.1c0,0-1.2,0-1.2,0Z"
     id="path1" />
  <path
     class="st1"
     d="M121.8,132.7h-11.4c-.8,0-1.7.3-2.3.9-.6.6-1,1.4-1,2.3v44.5c0,.9.4,1.7,1,2.3.6.6,1.4.9,2.3.9h11.4c1.8,0,3.3-1.4,3.3-3.2v-44.5c0-1.8-1.5-3.2-3.3-3.2Z"
     id="path2"
     style="fill:#ff6600;fill-opacity:1" />
  <path
     class="st1"
     d="M269.1,31.2C248.6,9.5,205.4-.4,150.2-.4h-.2C94.9-.4,51.6,9.5,31.1,31.2,7.5,57.3,0,99.6,0,149.6s7.4,92.3,31,118.4c20.5,21.7,63.7,31.6,118.9,31.6h.2c55.2,0,98.4-10,118.9-31.6,23.6-26.1,31-68.4,31-118.4s-7.4-92.3-31-118.4ZM242.7,193.1c-1.5,12.6-11.6,22.7-24.2,24.2-9.5,1.1-24.8,1.9-39.5,2.3-2.2,0-5,1.4-6.3,3.1-5.9,7.7-10.3,13.1-15.3,21.8-3.8,6.7-10.8,6.7-14.6,0-5.1-8.7-9.3-13.8-15.3-21.8-1.3-1.7-4.1-3.1-6.3-3.1-14.7-.4-30-1.3-39.5-2.3-12.6-1.5-22.7-11.6-24.2-24.2-3.3-31-3.3-65.9,0-96.9,1.5-12.6,11.6-22.7,24.2-24.2,31-3.3,105.8-3.3,136.7,0,12.6,1.5,22.7,11.6,24.2,24.2h0c3.3,31,3.3,65.9,0,96.9Z"
     id="path3"
     style="fill:#ff6600;fill-opacity:1" />
  <path
     class="st1"
     d="M193,139.1c0-3.4-2.8-6.5-6.7-6.5h-14.4c-2.3,0-4.7-.7-6.4-2.4-1.5-1.6-2-3.9-1.5-6l2.6-9.2c.9-4.2.4-7.4-1-9.5-1.7-2.2-4.5-3.6-7.3-3.8-.8,0-1.7,0-2.4.5-.6.4-1,1.1-1.1,1.8l-2.3,10.8c-.5,2.5-2.8,6.8-4.6,8.5-4.4,4-6.6,8.4-10.3,13-.8,1-3,1.8-4.8,2.3-1,.3-1.7,1.2-1.7,2.2v34.5c0,1.3,1,2.3,2.3,2.3s3.4.6,4.8,1.6c4.3,3.1,9.4,4.5,14.7,4.5h28.3c1.7,0,3.6-.6,4.9-1.8,1.9-1.8,2.5-4.5,1.5-7.1-.3-.8-.9-1.6-1.5-2.2-1.3-1.2-2.7-1.7-4.4-1.7h1.8c3.4-.2,6.6-3,6.6-6.4s-3.2-6.2-6.6-6.4h1.8c1.7.1,3.7-.6,4.9-1.8s1.9-2.9,1.9-4.6-.7-3.4-2-4.6c-1-1-2.7-1.7-4.2-1.7h1.2-.1c3.4,0,6-2.9,6-6.3Z"
     id="path4"
     style="fill:#ff6600;fill-opacity:1" />
</svg>
